<svg xmlns="http://www.w3.org/2000/svg" version="1.1" xmlns:xlink="http://www.w3.org/1999/xlink" xmlns:svgjs="http://svgjs.dev/svgjs" width="1000" height="623" viewBox="0 0 1000 623"><g transform="matrix(1,0,0,1,-0.6060606060606233,21.695700396691677)"><svg viewBox="0 0 396 247" data-background-color="#ffffff" preserveAspectRatio="xMidYMid meet" height="623" width="1000" xmlns="http://www.w3.org/2000/svg" xmlns:xlink="http://www.w3.org/1999/xlink"><g id="tight-bounds" transform="matrix(1,0,0,1,0.2400000000000091,-0.09999999999999432)"><svg viewBox="0 0 395.52 247.2" height="247.2" width="395.52"><g><svg></svg></g><g><svg viewBox="0 0 395.52 247.2" height="247.2" width="395.52"><g transform="matrix(1,0,0,1,78.9909512195122,47.215199999999996)"><svg viewBox="0 0 237.5380975609756 152.7696" height="152.7696" width="237.5380975609756"><g><svg viewBox="0 0 237.5380975609756 152.7696" height="152.7696" width="237.5380975609756"><g><svg viewBox="0 0 237.5380975609756 152.7696" height="152.7696" width="237.5380975609756"><g><svg viewBox="0 0 237.5380975609756 152.7696" height="152.7696" width="237.5380975609756"><g id="textblocktransform"><svg viewBox="0 0 237.5380975609756 152.7696" height="152.7696" width="237.5380975609756" id="textblock"><g><svg viewBox="0 0 237.5380975609756 152.7696" height="152.7696" width="237.5380975609756"><g transform="matrix(1,0,0,1,0,0)"><svg width="237.5380975609756" viewBox="1.2899999618530273 -35.54999923706055 56.029998779296875 36.040000915527344" height="152.7696" data-palette-color="#b19dd0"><path d="M19.02-10.4L19.02-35.55 23.75-35.55 23.75-10.4Q23.75-6.88 22.31-4.46 20.87-2.03 18.33-0.77 15.8 0.49 12.52 0.49L12.52 0.49Q9.25 0.49 6.71-0.63 4.17-1.76 2.73-4.05 1.29-6.35 1.29-9.84L1.29-9.84 6.03-9.84Q6.03-6.47 7.85-4.9 9.67-3.32 12.52-3.32L12.52-3.32Q14.38-3.32 15.84-4.13 17.31-4.93 18.16-6.51 19.02-8.08 19.02-10.4L19.02-10.4ZM44.85-13.94L35.37-13.94 35.37-17.75 44.85-17.75Q47.6-17.75 49.3-18.64 51-19.53 51.79-21.09 52.59-22.66 52.59-24.66L52.59-24.66Q52.59-26.49 51.79-28.1 51-29.71 49.3-30.71 47.6-31.71 44.85-31.71L44.85-31.71 36.45-31.71 36.45 0 31.71 0 31.71-35.55 44.85-35.55Q48.87-35.55 51.66-34.16 54.44-32.76 55.88-30.32 57.32-27.88 57.32-24.71L57.32-24.71Q57.32-21.29 55.88-18.87 54.44-16.46 51.66-15.2 48.87-13.94 44.85-13.94L44.85-13.94Z" opacity="1" transform="matrix(1,0,0,1,0,0)" fill="#b19dd0" class="undefined-text-0" data-fill-palette-color="primary" id="text-0"></path></svg></g></svg></g></svg></g></svg></g><g></g></svg></g></svg></g></svg></g><g><path d="M159.536 11.15A118.769 118.769 0 0 1 235.984 11.15L222.207 11.15A104.992 104.992 0 0 0 173.313 11.15L159.536 11.15M159.536 236.05A118.769 118.769 0 0 0 235.984 236.05L222.207 236.05A104.992 104.992 0 0 1 173.313 236.05L159.536 236.05" fill="#b19dd0" stroke="transparent" data-fill-palette-color="tertiary"></path></g></svg></g><defs></defs></svg><rect width="395.52" height="247.2" fill="none" stroke="none" visibility="hidden"></rect></g></svg></g></svg>